<?xml version="1.0" standalone="no"?><!DOCTYPE svg PUBLIC "-//W3C//DTD SVG 1.1//EN"
        "http://www.w3.org/Graphics/SVG/1.1/DTD/svg11.dtd">
<svg xmlns:xlink="http://www.w3.org/1999/xlink" t="1627984337740" class="icon" viewBox="0 0 1024 1024" version="1.1" xmlns="http://www.w3.org/2000/svg"
     p-id="5646" width="200" height="200">
    <defs>
        <style type="text/css"></style>
    </defs>
    <path d="M773.12 846.72H255.68c-3.36 0-6.72 0-9.6-0.48-44.64-3.36-83.52-31.2-104.16-73.92-26.4-55.2-11.04-122.4 36.48-164.64l68.16-60c10.08-8.64 24.96-7.68 34.08 2.4 8.64 10.08 7.68 24.96-2.4 34.08l-68.16 60c-31.68 27.84-41.76 72-24.96 108 13.44 27.84 36.96 45.12 64.32 47.04H779.36c27.84-1.92 51.36-19.2 64.32-47.04 17.28-35.52 6.72-80.16-24.96-108l-63.36-55.2c-10.08-8.64-11.04-24-2.4-34.08 8.64-10.08 24-11.04 34.08-2.4l63.36 55.2c48 41.76 62.88 109.44 36.48 164.64-20.64 43.2-59.52 71.04-104.16 73.92-2.88 0-6.24 0.48-9.6 0.48z"
          fill="#000000" p-id="5647"></path>
    <path d="M766.4 591.36c-13.44 0-24-10.56-24-24V425.28c0-64.32-24.48-124.8-68.16-170.88-43.68-45.12-100.32-70.08-160.32-70.08-124.32 0-225.6 108.96-225.6 242.4l-1.92 136.8c0 12.96-11.04 23.52-24 23.52h-0.48c-13.44 0-24-11.04-23.52-24.48l1.44-136.8c0-159.84 122.88-290.4 273.6-290.4 72.96 0 142.56 30.24 195.36 84.96 52.8 54.72 81.6 127.2 81.6 204v142.08c0 13.92-10.56 24.96-24 24.96zM514.4 949.44c-66.72 0-120.96-54.24-120.96-120.96 0-13.44 10.56-24 24-24s24 10.56 24 24c0 40.32 32.64 72.96 72.96 72.96 40.32 0 72.96-32.64 72.96-72.96 0-13.44 10.56-24 24-24s24 10.56 24 24c0 66.72-54.24 120.96-120.96 120.96z"
          fill="#000000" p-id="5648"></path>
    <path d="M565.76 170.88c-13.44 0-24-10.56-24-24 0-15.36-12.48-27.36-27.36-27.36-15.36 0-27.36 12.48-27.36 27.36 0 13.44-10.56 24-24 24s-24-10.56-24-24c0-41.76 33.6-75.36 75.36-75.36s75.36 33.6 75.36 75.36c0 13.44-10.56 24-24 24z"
          fill="#000000" p-id="5649"></path>
</svg>